<svg xmlns="http://www.w3.org/2000/svg" viewBox="0 0 80 72" fill="none" role="img" aria-label="HashMicro Logo">
  <!-- Cloud silhouette -->
  <path
    d="M64.5 30.4C63.2 22.4 56.3 16.5 48 16.5c-4.1 0-7.9 1.5-10.8 3.9C35.4 16.3 31.2 14 26.5 14
       C18.5 14 12 20.5 12 28.5c0 .5 0 1 .1 1.5C7.4 31.7 4 35.9 4 40.9C4 46.9 8.9 51.8 15 51.8
       h49c5.5 0 10-4.5 10-10C74 36.8 69.8 31.8 64.5 30.4Z"
    fill="white"
    opacity="0.95"
  />
  <!-- Hashtag / # symbol centred in cloud -->
  <!-- Horizontal bars -->
  <line x1="29" y1="34" x2="51" y2="34" stroke="#1a1a2e" stroke-width="3.2" stroke-linecap="round"/>
  <line x1="29" y1="42" x2="51" y2="42" stroke="#1a1a2e" stroke-width="3.2" stroke-linecap="round"/>
  <!-- Vertical bars -->
  <line x1="35" y1="28" x2="32" y2="48" stroke="#1a1a2e" stroke-width="3.2" stroke-linecap="round"/>
  <line x1="48" y1="28" x2="45" y2="48" stroke="#1a1a2e" stroke-width="3.2" stroke-linecap="round"/>
</svg>
